<svg xmlns="http://www.w3.org/2000/svg" viewBox="0 0 122.13 40"><defs><style>.cls-1{fill:#246ce0;fill-rule:evenodd;}</style></defs><title>logo</title><g id="Layer_2" data-name="Layer 2"><g id="BIG"><path class="cls-1" d="M3.79,28.53c-2,0-1.87.09-1.27-1.53l.88-2.46c.7-1.91,1.13-1.67,3-1.67h6.95l.73-2H5.26a4.31,4.31,0,0,0-3.8,2.87L.18,27.66c-.51,1.58.06,2.87,1.64,2.87h8.74l.63-2Z"/><path class="cls-1" d="M34,.23c.39.13.81.32.89.85a1.08,1.08,0,0,1-.83,1.21c-.76.16-1.25-.06-1.39-.67-.1-.41-.26-.74-.72-.81a1.06,1.06,0,0,0-1.14.65,7.5,7.5,0,0,0-.66,2.85c-.37,3.84.11,7.66.24,11.49s0,7.72-.23,11.57A47.77,47.77,0,0,1,28.86,37c-.45,1.72-1.2,2.68-3,3-.7.13-2-.08-2.28-.59a.94.94,0,0,1,.15-1.09A1,1,0,0,1,24.86,38a1,1,0,0,1,.69.87c0,.21-.23.54.14.65a1,1,0,0,0,1-.24A5,5,0,0,0,28,36.6c.78-4.22.39-8.48.35-12.73s-.1-8.7.21-13.05c.16-2.18.31-4.36.65-6.52a9.37,9.37,0,0,1,.74-2.68A2.78,2.78,0,0,1,31.37.23,4,4,0,0,1,34,.23Z"/><path class="cls-1" d="M24.65,20.86H16.21l-.63,2H23c2,0,1.87-.1,1.27,1.52l-.9,2.46c-.69,1.9-1.13,1.67-3,1.67H16.12c-.47,0-.54-.38-.37-.91h0a1.47,1.47,0,0,1,1.3-1h5.6l.8-2.06H17.54a4.51,4.51,0,0,0-4,3v0c-.54,1.63,0,3,1.91,3h6a4.32,4.32,0,0,0,3.8-2.87l1.28-3.93A2,2,0,0,0,24.65,20.86Z"/><path class="cls-1" d="M35.63,28.53c-2,0-1.87.09-1.27-1.53l.88-2.46c.7-1.91,1.13-1.67,3-1.67h6.95l.73-2H37.09a4.31,4.31,0,0,0-3.8,2.87L32,27.66c-.51,1.58.06,2.87,1.64,2.87h8.74l.63-2Z"/><path class="cls-1" d="M55.21,26.86c-.71,1.57-.75,1.68-2.47,1.68H48.66c-1.88-.08-1.43-.58-.66-2.49l2-5.25H47.88l-2.64,7.09c-.64,1.58.38,2.63,2.18,2.63H52c3.15,0,4.19-.75,4.83-2.34l2.9-7.32H57.49Z"/><path class="cls-1" d="M68.16.23c.39.13.81.32.89.85a1.08,1.08,0,0,1-.83,1.21c-.76.16-1.25-.06-1.39-.67-.1-.41-.26-.74-.72-.81A1.06,1.06,0,0,0,65,1.44a7.5,7.5,0,0,0-.66,2.85c-.37,3.84.11,7.66.24,11.49s0,7.72-.23,11.57A47.77,47.77,0,0,1,63,37c-.45,1.72-1.2,2.68-3,3-.7.13-2-.08-2.28-.59a1,1,0,0,1,.15-1.09A1,1,0,0,1,59,38a1,1,0,0,1,.69.87c0,.21-.23.54.14.65a1,1,0,0,0,1-.24A5,5,0,0,0,62.1,36.6c.78-4.22.39-8.48.35-12.73s-.1-8.7.21-13.05c.16-2.18.31-4.36.65-6.52a9.37,9.37,0,0,1,.74-2.68A2.78,2.78,0,0,1,65.5.23,4,4,0,0,1,68.16.23Z"/><path class="cls-1" d="M76,26.86c-.71,1.57-.75,1.68-2.47,1.68H69.47c-1.88-.08-1.43-.58-.66-2.49l2-5.25H68.69l-2.64,7.09c-.64,1.58.38,2.63,2.18,2.63h4.54c3.15,0,4.19-.75,4.83-2.34l2.9-7.32H78.3Z"/><path class="cls-1" d="M84.58,22.81H93.1l.74-2H85.26a4.91,4.91,0,0,0-4.14,2.95c-.66,1.63.13,2.95,1.76,2.95h5.71c.5,0,.75.41.54.91a1.52,1.52,0,0,1-1.28.91H79.34l-.74,2h8.58a4.91,4.91,0,0,0,4.14-2.95c.66-1.63-.13-2.95-1.76-2.95H83.85c-.5,0-.75-.41-.54-.91A1.52,1.52,0,0,1,84.58,22.81Z"/><path class="cls-1" d="M113.59,14.5a.47.47,0,0,0-.47-.47H94.49a.47.47,0,0,0-.47.47V30.88a.47.47,0,0,0,.47.47h18.63a.47.47,0,0,0,.47-.47Zm-2.06,14.84a.19.19,0,0,1-.19.19H96a.19.19,0,0,1-.19-.19V15.75a.19.19,0,0,1,.19-.19h15.29a.19.19,0,0,1,.19.19Z"/><path class="cls-1" d="M102.87,28.82l-6.06-6.06c-.12-.12-.14-.13-.14-.21V17c0-.33.27-.28.59.1l5.86,6.73s.1.13.17.13.22-.12.22-.12L121.85,5.65s.15-.08.24,0,0,.24,0,.24l-15.46,19-3.24,3.94a.28.28,0,0,1-.25.12A.34.34,0,0,1,102.87,28.82Z"/></g></g></svg>