<svg xmlns="http://www.w3.org/2000/svg" viewBox="0 0 667.6 218.66"><defs><style>.cls-1{fill:#11b2ea;fill-rule:evenodd;}</style></defs><title>Asset 1</title><g id="Layer_2" data-name="Layer 2"><g id="Layer_5" data-name="Layer 5"><g id="main"><path class="cls-1" d="M20.73,156.29c-11,0-10.2.32-6.95-8.53l4.83-13.37c3.81-10.44,6.15-9.09,16.6-9.09h38l4-11H28.73c-8.65,0-17.94,6.9-20.76,15.55L1,151.45c-2.81,8.65.31,15.84,9,15.84H57.72l3.44-11Z"/><path class="cls-1" d="M186,1.23c2.14.71,4.42,1.77,4.88,4.63a5.92,5.92,0,0,1-4.52,6.61c-4.13.9-6.82-.34-7.61-3.69-.53-2.26-1.44-4.07-3.95-4.44-3-.45-5,1.18-6.22,3.54-2.55,4.84-3.11,10.21-3.62,15.56-2,21,.6,41.88,1.29,62.82.7,21.11-.13,42.2-1.23,63.27-.92,17.7-2.78,35.26-7.27,52.48-2.45,9.41-6.56,14.64-16.48,16.43-3.82.69-11.16-.41-12.45-3.24a5.16,5.16,0,0,1,.79-6,5.72,5.72,0,0,1,6.28-1.5,5.52,5.52,0,0,1,3.75,4.77c.19,1.17-1.24,3,.79,3.54a5.62,5.62,0,0,0,5.6-1.29c4-4.14,5.81-9.27,6.82-14.69,4.29-23.08,2.12-46.38,1.92-69.59-.2-23.8-.57-47.58,1.14-71.36.85-11.92,1.72-23.81,3.56-35.62a51.22,51.22,0,0,1,4.05-14.64,15.19,15.19,0,0,1,7.94-7.65A22.06,22.06,0,0,1,186,1.23Z"/><path class="cls-1" d="M134.73,114.29H88.59l-3.44,11h40.42c10.95,0,10.2-.67,6.95,8.19l-4.93,13.36c-3.79,10.37-6.16,9.11-16.47,9.11h-23c-2.55,0-3-2.07-2-5v.29a7.74,7.74,0,0,1,7.1-5h30.61l4.35-12H95.87c-9,0-18.76,7.31-21.7,16.24l0,.35c-2.94,8.93.12,16.41,10.41,16.41h33c8.65,0,17.94-7.24,20.75-15.89l7-21.44C148.12,121.3,143.38,114.29,134.73,114.29Z"/><path class="cls-1" d="M194.74,156.29c-11,0-10.2.32-6.95-8.53l4.83-13.37c3.81-10.44,6.15-9.09,16.6-9.09h38l4-11H202.74c-8.65,0-17.94,6.9-20.75,15.55l-7,21.61c-2.81,8.65.31,15.84,9,15.84h47.75l3.44-11Z"/><path class="cls-1" d="M301.82,147.08c-3.87,8.61-4.08,9.2-13.48,9.2H266c-10.28,0-7.84-3-3.62-13.46l11-28.54H261.76l-14.41,38.45c-3.5,8.65,2.1,14.24,11.93,14.24l24.81-.09c17.24,0,22.92-4,26.41-12.69l15.88-39.91H314.24Z"/><path class="cls-1" d="M372.61,1.23c2.14.71,4.42,1.77,4.88,4.63A5.92,5.92,0,0,1,373,12.47c-4.13.9-6.82-.34-7.61-3.69-.53-2.26-1.44-4.07-3.95-4.44-3-.45-5,1.18-6.22,3.54-2.55,4.84-3.11,10.21-3.62,15.56-2,21,.6,41.88,1.29,62.82.7,21.11-.13,42.2-1.23,63.27-.92,17.7-2.78,35.26-7.27,52.48-2.45,9.41-6.56,14.64-16.49,16.43-3.82.69-11.16-.41-12.45-3.24a5.16,5.16,0,0,1,.79-6,5.72,5.72,0,0,1,6.28-1.5,5.52,5.52,0,0,1,3.75,4.77c.19,1.17-1.24,3,.79,3.54a5.62,5.62,0,0,0,5.6-1.29c4-4.14,5.81-9.27,6.82-14.69,4.29-23.08,2.12-46.38,1.92-69.59-.2-23.8-.57-47.58,1.14-71.36.86-11.92,1.72-23.81,3.57-35.62a51.19,51.19,0,0,1,4.05-14.64,15.19,15.19,0,0,1,7.94-7.65A22.06,22.06,0,0,1,372.61,1.23Z"/><path class="cls-1" d="M415.57,147.08c-3.87,8.61-4.08,9.2-13.48,9.2H379.73c-10.27,0-7.84-3-3.62-13.46l11-28.54H375.51L361.1,152.74C357.6,161.39,363.2,167,373,167l24.81-.09c17.24,0,22.92-4,26.42-12.69l15.88-39.91H428Z"/><path class="cls-1" d="M462.37,125.29h46.56l4-11H466.06c-8.9,0-19,7.1-22.62,16s.7,16,9.6,16h31.24c2.76,0,4.09,2.24,3,5a8.32,8.32,0,0,1-7,5H433.69l-4,11h46.9c8.9,0,19-7.1,22.62-16s-.7-16-9.6-16H458.34c-2.76,0-4.09-2.24-3-5A8.32,8.32,0,0,1,462.37,125.29Z"/><path class="cls-1" d="M620.85,79.87a2.58,2.58,0,0,0-2.58-2.58H516.43a2.58,2.58,0,0,0-2.58,2.58v89.84a2.58,2.58,0,0,0,2.58,2.58H618.28a2.58,2.58,0,0,0,2.58-2.58Zm-11,80.36a1.06,1.06,0,0,1-1.06,1.06H524.92a1.06,1.06,0,0,1-1.06-1.06V86.35a1.06,1.06,0,0,1,1.06-1.06h83.88a1.06,1.06,0,0,1,1.06,1.06Z"/><path class="cls-1" d="M562.34,157.52l-32.93-33.15c-.63-.63-.56-.72-.56-1.14V93.07c0-1.78,1.24-1.54,3,.53l32,36.8s.47.72.9.72,1.16-.65,1.16-.65l100.23-99.6s.84-.42,1.28,0,0,1.29,0,1.29L582.86,136l-17.72,21.55a1.54,1.54,0,0,1-1.34.65A1.83,1.83,0,0,1,562.34,157.52Z"/></g></g></g></svg>