<svg xmlns="http://www.w3.org/2000/svg" xmlns:xlink="http://www.w3.org/1999/xlink" viewBox="-7629.151 -13869.474 658.482 336.597">
  <defs>
    <style>
      .cls-1, .cls-2, .cls-4 {
        fill: none;
      }

      .cls-2, .cls-4 {
        stroke: #004284;
      }

      .cls-2 {
        stroke-width: 2px;
      }

      .cls-3 {
        fill: #004284;
      }

      .cls-5 {
        fill: #e4b69d;
      }

      .cls-6 {
        fill: #262626;
      }

      .cls-7 {
        fill: #333;
      }

      .cls-8 {
        fill: #cb8c84;
      }

      .cls-9 {
        fill: #a54b49;
      }

      .cls-10 {
        fill: #bb844c;
      }

      .cls-11 {
        clip-path: url(#clip-path);
      }

      .cls-12 {
        fill: #9d6f43;
      }

      .cls-13 {
        fill: #1ab0ff;
      }

      .cls-14 {
        fill: #086fd6;
      }

      .cls-15 {
        fill: #e8e8e8;
      }

      .cls-16 {
        fill: #3f3f3f;
      }

      .cls-17 {
        fill: #f0d0b4;
      }

      .cls-18 {
        fill: #08161c;
      }

      .cls-19 {
        fill: #1e2328;
      }

      .cls-20 {
        fill: #151f26;
      }

      .cls-21 {
        fill: #1fa6db;
      }

      .cls-22 {
        fill: #182530;
      }

      .cls-23 {
        fill: #39bced;
      }

      .cls-24 {
        fill: #2b3138;
      }

      .cls-25 {
        fill: #9cc9ea;
      }

      .cls-26 {
        fill: #d6eeff;
      }

      .cls-27 {
        fill: #fff;
      }

      .cls-28 {
        fill: #f04e23;
      }

      .cls-29 {
        fill: #fd0;
      }

      .cls-30 {
        fill: #3463b7;
      }

      .cls-31 {
        fill: #c6e7ff;
      }
    </style>
    <clipPath id="clip-path">
      <rect id="Rectangle_247" data-name="Rectangle 247" class="cls-1" width="383.876" height="44.701" rx="22.35"/>
    </clipPath>
  </defs>
  <g id="Mancing2" transform="translate(-7705 -14003.342)">
    <g id="Layer_5" data-name="Layer 5" transform="translate(9 -42)">
      <ellipse id="Ellipse_269" data-name="Ellipse 269" class="cls-2" cx="90.375" cy="14.142" rx="90.375" ry="14.142" transform="translate(543.579 483.181)"/>
      <ellipse id="Ellipse_270" data-name="Ellipse 270" class="cls-3" cx="18.809" cy="2.118" rx="18.809" ry="2.118" transform="translate(615.146 493.154)"/>
      <ellipse id="Ellipse_267" data-name="Ellipse 267" class="cls-4" cx="62.809" cy="9.447" rx="62.809" ry="9.447" transform="translate(571.146 486.509)"/>
      <ellipse id="Ellipse_263" data-name="Ellipse 263" class="cls-4" cx="43.809" cy="5.94" rx="43.809" ry="5.94" transform="translate(590.146 489.332)"/>
      <path id="Path_416" data-name="Path 416" class="cls-5" d="M313.408,289.942l-3.327-.6a.314.314,0,0,1-.252-.359l1.239-7.51a.314.314,0,0,1,.084-.168l2.294-2.394c.2-.206.665,1.27.658,1.53l-.352,9.177a.314.314,0,0,1-.344.321Z" transform="translate(-72.88 -65.605)"/>
      <path id="Path_417" data-name="Path 417" class="cls-6" d="M242.385,587.078l68.324-68.324-2.661-2.654L237.07,587.078Z" transform="translate(-55.766 -121.403)"/>
      <path id="Path_418" data-name="Path 418" class="cls-6" d="M308,587.078,237.021,516.1l-2.661,2.654,68.324,68.324Z" transform="translate(-55.129 -121.403)"/>
      <path id="Path_419" data-name="Path 419" class="cls-7" d="M239.683,587.078,308,518.754l-2.661-2.654L234.36,587.078Z" transform="translate(-55.129 -121.403)"/>
      <path id="Path_420" data-name="Path 420" class="cls-7" d="M305.73,587.078,234.751,516.1l-2.661,2.654,68.324,68.324Z" transform="translate(-54.595 -121.403)"/>
      <rect id="Rectangle_243" data-name="Rectangle 243" class="cls-8" width="91.015" height="2.371" transform="translate(169.679 396.288)"/>
      <rect id="Rectangle_244" data-name="Rectangle 244" class="cls-9" width="95.061" height="3.434" transform="translate(167.653 394.384)"/>
      <rect id="Rectangle_245" data-name="Rectangle 245" class="cls-10" width="383.876" height="44.701" rx="22.35" transform="translate(66.848 465.675)"/>
      <g id="Group_227" data-name="Group 227" class="cls-11" transform="translate(66.848 465.675)">
        <rect id="Rectangle_246" data-name="Rectangle 246" class="cls-12" width="383.876" height="30.637" transform="translate(0 33.007)"/>
      </g>
      <path id="Path_421" data-name="Path 421" class="cls-5" d="M253.88,323.12,267.424,326l9.942-19.685s-18.431-10.883-16.985-3.694S253.88,323.12,253.88,323.12Z" transform="translate(-59.721 -70.609)"/>
      <path id="Path_422" data-name="Path 422" class="cls-5" d="M387.322,363.074a9.261,9.261,0,0,1-17.291,4.589c-.765-1.361-4.489,1.491-5.139-.069-.9-2.164,0-1.063-2.478-6.921-1.025-2.432,12.8-6.883,15.647-6.883a9.261,9.261,0,0,1,9.261,9.284Z" transform="translate(-85.238 -83.223)"/>
      <path id="Path_423" data-name="Path 423" class="cls-13" d="M376.924,338.016a1,1,0,0,1-.612-1.79c70.879-54.658,161.565-78.045,225.156-88.071,68.875-10.837,121.721-8.734,122.233-8.711s-.084.26-.65.229-52.631-.352-121.315,10.462c-63.346,9.973-153.665,33.283-224.223,87.673a.994.994,0,0,1-.589.206Z" transform="translate(-88.43 -56.283)"/>
      <path id="Path_424" data-name="Path 424" class="cls-14" d="M349.894,375.486a3.212,3.212,0,0,1-1.53-5.935l42.292-26.132a3.212,3.212,0,1,1,3.373,5.46l-42.292,26.132A3.2,3.2,0,0,1,349.894,375.486Z" transform="translate(-81.59 -80.652)"/>
      <path id="Path_425" data-name="Path 425" class="cls-5" d="M247.215,461.655c2.486,9.277,4.16,19.815,9.7,22.767,5.965,3.174,13.253,4.237,20.343,5.139,14.072,1.782,30.109-6.936,39.577-12.588,13.559-8.084,31.983-17.291,33.122-12.779,2.654,10.47,2.294,40.12,22.178,85.1,1.53,3.419,12.19,1.935,11.433-.956s-8.458-78.664-12.718-98.089-14.011-19.188-25.5-18.446S243.483,447.736,247.215,461.655Z" transform="translate(-58.126 -101.518)"/>
      <circle id="Ellipse_266" data-name="Ellipse 266" class="cls-15" cx="5.942" cy="5.942" r="5.942" transform="translate(294.459 271.722)"/>
      <path id="Path_426" data-name="Path 426" class="cls-5" d="M341.227,360.057l-1.82-9.8s-40.961,17.666-41.772,17.307c-2.83-1.239-19.31-28.511-29.367-44.984-8.932-.7-16.825-3.724-15.578,2.447,4.657,25.5,31.746,68.753,38.774,67.476C305.314,390.02,341.227,360.057,341.227,360.057Z" transform="translate(-59.41 -75.563)"/>
      <rect id="Rectangle_248" data-name="Rectangle 248" class="cls-16" width="10.057" height="1.935" rx="0.967" transform="translate(293.847 284.535) rotate(-50.94)"/>
      <path id="Path_427" data-name="Path 427" class="cls-17" d="M386.322,371.584a9.261,9.261,0,0,1-17.291,4.589c-.765-1.361-4.489,1.491-5.139-.069-.9-2.164,0-1.063-2.478-6.921-1.025-2.432,12.8-6.883,15.647-6.883a9.261,9.261,0,0,1,9.261,9.284Z" transform="translate(-85.003 -85.224)"/>
      <path id="Path_428" data-name="Path 428" class="cls-17" d="M253.85,256.367c-.811,16.565-2.378,29.826,12.336,34.912s30.292-1.713,34.2-18.232c4.925-20.825-6.286-31.279-21.291-35.439S254.615,240.819,253.85,256.367Z" transform="translate(-59.599 -55.623)"/>
      <path id="Path_429" data-name="Path 429" class="cls-18" d="M245.377,263.19c1.53,9.215,8.244,19.486,12.45,23.257,2.1,1.881,7.793-15.7,7.587-25.727-.176-8.191,7.931,18.614,9.345,2.47,1.361-15.532,20.794-10.141,25.7-6.118,3.181,2.593,3.984-23.41-24.534-26.851C254.225,227.59,242.486,245.547,245.377,263.19Z" transform="translate(-57.618 -54.094)"/>
      <path id="Path_430" data-name="Path 430" class="cls-19" d="M342.03,469.717s2.577-38.047-.872-38.177c-25.956-.964-102.441,19.4-95.466,39.409,3.159,9.07,5.9,19.372,11.686,21.811,6.218,2.631,13.582,3.059,20.718,3.311,14.179.528,29.375-9.583,38.307-16.06C326.123,472.975,337.465,469.2,342.03,469.717Z" transform="translate(-57.689 -101.504)"/>
      <path id="Path_431" data-name="Path 431" class="cls-20" d="M445.727,598.886l-32.434,3.671a2.611,2.611,0,0,1-3.059-1.981l-1.8-15.938c-.145-1.27,12.565-3.365,13.766-2.386,10.133,8.16,23.914,6.118,26.9,11.846C450.163,596.163,448.465,598.572,445.727,598.886Z" transform="translate(-96.075 -136.905)"/>
      <path id="Path_432" data-name="Path 432" class="cls-21" d="M410.755,604.719a2.611,2.611,0,0,0,3.059,1.981l32.434-3.671a3.9,3.9,0,0,0,3.709-3.418l-39.317,4.122Z" transform="translate(-96.595 -141.047)"/>
      <path id="Path_433" data-name="Path 433" class="cls-17" d="M277.007,471.105c3.633,8.887-15.242,17.169-9.368,19.395,6.317,2.394,9.659,5.17,16.825,5.17,14.186,0,29.321-10.011,38.009-16.825,12.435-9.728,28.648-19.494,30.254-15.127,3.136,8.55,6.447,49.259,34.942,87.65,2.225,3.006,10.133-5.636,9.017-8.412s-18.347-76.936-25.031-95.68S355.342,430,344.039,432.186,271.554,457.752,277.007,471.105Z" transform="translate(-62.688 -101.37)"/>
      <path id="Path_434" data-name="Path 434" class="cls-22" d="M462.516,590.3,430.4,601.639a2.706,2.706,0,0,1-3.571-1.3l-5.568-15.77c-.444-1.262,11.984-6.363,13.445-5.659,12.236,5.912,25.734.6,30.124,5.728C466.424,586.481,465.238,589.333,462.516,590.3Z" transform="translate(-99.09 -136.162)"/>
      <path id="Path_435" data-name="Path 435" class="cls-23" d="M428.464,602.525a2.719,2.719,0,0,0,3.571,1.3l32.12-11.342a4.069,4.069,0,0,0,2.967-4.344l-39,13.391Z" transform="translate(-100.707 -138.349)"/>
      <path id="Path_436" data-name="Path 436" class="cls-24" d="M341.647,469.339s1.721-38.4-1.721-38.4c-26,0-99.948,29.88-94.495,43.217,3.633,8.887,6.623,19.119,12.5,21.368,6.317,2.394,13.712,2.669,20.855,2.669,14.186,0,28.969-10.806,37.657-17.59C325.893,473.178,337.066,468.987,341.647,469.339Z" transform="translate(-57.666 -101.371)"/>
      <path id="Path_437" data-name="Path 437" class="cls-25" d="M295.056,364.155c-4.015-3.824-19.463-35.355-30.514-50.865-9.269-.061-20.565,5.124-18.8,11.4,4.443,17.3,19.739,41.993,31.57,56.012Z" transform="translate(-57.763 -73.695)"/>
      <path id="Path_438" data-name="Path 438" class="cls-26" d="M217.955,418.6c-16.488-68.34,21.482-109.545,27.922-112.421,2.57-1.162,13.047,10.225,15.984,13.6,5.017,5.782-1.667,16.358,2.57,52.662,3.587,30.767,17.8,44.074,13.873,47.232-13.988,11.25-9.789,30.82-7.908,41.137,1.331,7.326-11.678,7.456-17.475,6.118C238.894,463.786,222.78,438.6,217.955,418.6Z" transform="translate(-50.302 -72.002)"/>
      <path id="Path_439" data-name="Path 439" class="cls-25" d="M275.372,395.883c-49.083-67.7-26.874-71.123-26.874-71.123l41.458,47.913S264.528,364.451,275.372,395.883Z" transform="translate(-57.276 -76.394)"/>
      <path id="Path_440" data-name="Path 440" class="cls-17" d="M337.954,366.549l-1.445-9.942S293.3,373.47,292.473,373.1c-2.929-1.285-16.909-36.242-27.31-53.289-9.238-.719-20.878,3.656-19.555,10.041,4.818,26.377,32.839,71.124,40.112,69.8C300.052,397.063,337.954,366.549,337.954,366.549Z" transform="translate(-57.75 -75.21)"/>
      <path id="Path_441" data-name="Path 441" class="cls-5" d="M304.9,391.851a11.049,11.049,0,0,0,.91-2.371,1.912,1.912,0,0,1,.26,1.935,25.528,25.528,0,0,1-4.2,6.546C301.66,398.152,304.536,392.5,304.9,391.851Z" transform="translate(-71.006 -91.618)"/>
      <rect id="Rectangle_250" data-name="Rectangle 250" class="cls-27" width="1.032" height="311.888" rx="0.516" transform="translate(634.467 495.065) rotate(180)"/>
      <path id="Path_442" data-name="Path 442" class="cls-5" d="M278.153,271.529c-1.048,8.749-4,8.5-6.508,6.118-1.935-1.858-2.929-5.262-2.011-9.246s2.646-5.8,5.353-5.177S278.635,267.476,278.153,271.529Z" transform="translate(-63.345 -61.89)"/>
      <rect id="Rectangle_251" data-name="Rectangle 251" class="cls-28" width="7.242" height="11.464" rx="3.621" transform="translate(630.33 479.089)"/>
      <path id="Path_443" data-name="Path 443" class="cls-29" d="M827.825,623.63h0a3.617,3.617,0,0,1,3.617,3.617v1.53H824.2v-1.53a3.617,3.617,0,0,1,3.625-3.617Z" transform="translate(-193.878 -146.697)"/>
      <rect id="Rectangle_252" data-name="Rectangle 252" class="cls-29" width="7.242" height="1.292" transform="translate(630.33 485.383)"/>
      <path id="Path_444" data-name="Path 444" class="cls-30" d="M821.607,621.513l.382.765a4.313,4.313,0,0,0-1.063,7l-.6.627a5.177,5.177,0,0,1,1.269-8.412Z" transform="translate(-192.585 -146.194)"/>
      <path id="Path_445" data-name="Path 445" class="cls-30" d="M818.122,619.255l.459.933A5.2,5.2,0,0,0,817.3,628.6l-.711.765a6.248,6.248,0,0,1,1.53-10.126Z" transform="translate(-191.631 -145.665)"/>
      <path id="Path_446" data-name="Path 446" class="cls-30" d="M836.052,621.513l-.382.765a4.313,4.313,0,0,1,1.063,7l.6.627a5.177,5.177,0,0,0-1.269-8.412Z" transform="translate(-196.576 -146.194)"/>
      <path id="Path_447" data-name="Path 447" class="cls-30" d="M839.339,619.255l-.459.933a5.2,5.2,0,0,1,1.277,8.412l.711.765a6.248,6.248,0,0,0-1.53-10.126Z" transform="translate(-197.331 -145.665)"/>
      <path id="Path_448" data-name="Path 448" class="cls-31" d="M292.678,371.532c-4.7-4.092-17.322-33.474-27.394-50.314a3.2,3.2,0,0,0-2.585-1.568c-9.72-.466-21.773,4.092-20.259,10.248,3.824,17.483,17.429,43.118,28.946,58.122a1.461,1.461,0,0,0,2.111.206Z" transform="translate(-56.999 -75.184)"/>
      <path id="Path_449" data-name="Path 449" class="cls-31" d="M275.156,320.849l1.193-3.824a2.547,2.547,0,0,0-1.2-2.99l-17.268-9.514a1.262,1.262,0,0,0-1.1-.061l-2.294,1.185a.413.413,0,0,0-.115.681l18.125,15.3a1.682,1.682,0,0,0,2.661-.772Z" transform="translate(-59.805 -71.595)"/>
    </g>
  </g>
</svg>
