<svg xmlns="http://www.w3.org/2000/svg" viewBox="-7648.951 -14772.379 125.327 125.327">
  <defs>
    <style>
      .cls-1 {
        fill: #207bd6;
        opacity: 0.658;
      }

      .cls-2 {
        fill: #262d35;
      }

      .cls-3 {
        fill: #f9b4f4;
        opacity: 0.37;
      }

      .cls-4 {
        fill: #ff5273;
      }
    </style>
  </defs>
  <g id="Math" transform="translate(-7648.951 -14772.379)">
    <path id="Path_365" data-name="Path 365" class="cls-1" d="M62.871-.449c34.375,0,62.017,28.935,62.017,63.309a61.86,61.86,0,0,1-62.017,62.017C28.5,124.878-.438,97.235-.438,62.86S28.5-.449,62.871-.449Z" transform="translate(0.438 0.449)"/>
    <g id="Group_270" data-name="Group 270" transform="translate(26.951 24.221)">
      <g id="Group_228" data-name="Group 228" transform="translate(0 0)">
        <path id="Path_450" data-name="Path 450" class="cls-2" d="M161.565,134.36a.045.045,0,0,1,.046-.046v-.365a128.854,128.854,0,0,0-.091-.091l-.046-.046-.046-.046h-.046v-.046l-5.3-4.84a.711.711,0,1,0-.959,1.05l4.7,4.292-4.7,4.292a.716.716,0,0,0-.046,1,.733.733,0,0,0,.5.228.586.586,0,0,0,.457-.183l5.3-4.84v-.046h0l.046-.046.046-.046A1.018,1.018,0,0,1,161.565,134.36Z" transform="translate(-84.166 -69.93)"/>
        <path id="Path_451" data-name="Path 451" class="cls-2" d="M71.462,70.849a.721.721,0,0,1-.731.731H36.439v11.6a.731.731,0,1,1-1.461,0v-11.6H.731a.731.731,0,0,1,0-1.461H35.023V13.131a.731.731,0,1,1,1.461,0V70.118H70.778A.713.713,0,0,1,71.462,70.849Z" transform="translate(0 -6.738)"/>
        <path id="Path_452" data-name="Path 452" class="cls-2" d="M77.266,5.525l-4.84-5.3H72.38V.183L72.334.137,72.289.091,72.243.046A.045.045,0,0,1,72.2,0h-.365a.045.045,0,0,0-.046.046.045.045,0,0,0-.046.046L71.7.137,71.65.183V.228H71.6l-5.023,5.3a.718.718,0,0,0,.046,1,.654.654,0,0,0,.457.183.733.733,0,0,0,.5-.228l4.292-4.7,4.292,4.7a.733.733,0,0,0,.5.228.586.586,0,0,0,.457-.183A.658.658,0,0,0,77.266,5.525Z" transform="translate(-36.078 0)"/>
      </g>
      <g id="Group_229" data-name="Group 229" transform="translate(2.648 24.338)">
        <path id="Path_453" data-name="Path 453" class="cls-3" d="M71.805,87.938l-.091-.274C70.3,82.5,68.2,74.742,65,68.166c-3.516-7.215-7.443-11.05-11.735-11.507a8.66,8.66,0,0,0-2.511.137c-3.973.913-7.58,4.7-10.868,11.37-3.2,6.575-5.3,14.338-6.712,19.5l-.091.274A39.559,39.559,0,0,1,30.8,94.057H74.088A39.559,39.559,0,0,1,71.805,87.938Z" transform="translate(-19.384 -55.107)"/>
        <path id="Path_454" data-name="Path 454" class="cls-4" d="M72.011,101.018a.8.8,0,0,1-.776.776c-4.521,0-7.808-3.973-9.909-7.945-.274-.548-.548-1.05-.776-1.553a39.558,39.558,0,0,1-2.283-6.119l-.091-.274c-1.416-5.16-3.516-12.923-6.712-19.5-3.562-7.26-7.489-11.1-11.781-11.553a4.43,4.43,0,0,0-.776-.046,4.178,4.178,0,0,0-.776.046c-4.292.411-8.265,4.292-11.781,11.507-3.2,6.575-5.3,14.338-6.712,19.5l-.091.274a39.558,39.558,0,0,1-2.283,6.119c-.228.5-.5,1.05-.776,1.553-2.146,3.973-5.388,7.945-9.909,7.945a.743.743,0,0,1-.776-.776.8.8,0,0,1,.776-.776c2.648,0,5.206-1.781,7.489-5.3l.685-1.1a12.757,12.757,0,0,0,.822-1.553,36.723,36.723,0,0,0,2.466-6.484l.091-.274c2.785-10.228,8.493-31.233,20-32.147.274,0,.5-.046.776-.046a4.178,4.178,0,0,1,.776.046c11.507.913,17.215,21.918,20,32.147l.091.274a39.359,39.359,0,0,0,2.466,6.484c.274.5.548,1.05.822,1.553l.685,1.1c2.283,3.516,4.795,5.3,7.489,5.3A.878.878,0,0,1,72.011,101.018Z" transform="translate(-5.8 -53.3)"/>
      </g>
    </g>
  </g>
</svg>
